<?xml version="1.0" encoding="utf-8"?>
<!-- Generator: Adobe Illustrator 15.0.0, SVG Export Plug-In . SVG Version: 6.00 Build 0)  -->
<!DOCTYPE svg PUBLIC "-//W3C//DTD SVG 1.1//EN" "http://www.w3.org/Graphics/SVG/1.1/DTD/svg11.dtd">
<svg version="1.1" id="Слой_1" xmlns="http://www.w3.org/2000/svg" xmlns:xlink="http://www.w3.org/1999/xlink" x="0px" y="0px"
	 width="138.292px" height="61px" viewBox="0 0 138.292 61" enable-background="new 0 0 138.292 61" xml:space="preserve">
<g>
	<g>
		<rect y="0.123" width="60.877" height="60.877"/>
		<circle fill="#FFFFFF" cx="30.438" cy="30.562" r="9.435"/>
	</g>
	<g>
		<path fill="#EF4423" d="M87.712,18.778c0,0.608-0.143,1.235-0.428,1.881c-0.284,0.646-0.665,1.268-1.14,1.867
			c-0.475,0.598-1.007,1.14-1.597,1.624c-0.589,0.485-1.196,0.879-1.822,1.183c-0.779,0.379-1.535,0.669-2.266,0.869
			c-0.731,0.2-1.458,0.347-2.18,0.442c-0.723,0.094-1.454,0.152-2.194,0.171c-0.741,0.019-1.511,0.028-2.309,0.028
			c-0.438,0-0.783,0-1.04,0s-0.465,0.004-0.627,0.014c-0.161,0.009-0.289,0.015-0.385,0.015c-0.095,0-0.181,0-0.257,0
			c-0.208,0-0.408-0.01-0.599-0.029c-0.188-0.02-0.284-0.105-0.284-0.257c0-0.095,0.175-0.417,0.527-0.968
			c0.352-0.551,0.735-1.292,1.153-2.223c0.816-1.843,1.592-3.552,2.323-5.129c0.731-1.577,1.391-2.982,1.98-4.217
			c0.588-1.235,1.092-2.275,1.51-3.12s0.722-1.439,0.912-1.781c-0.304-0.19-0.675-0.39-1.111-0.599s-0.917-0.399-1.438-0.57
			c-0.522-0.171-1.093-0.313-1.711-0.428c-0.617-0.114-1.268-0.171-1.951-0.171c-0.723,0-1.378,0.095-1.966,0.285
			c-0.59,0.19-1.055,0.456-1.396,0.798c-0.248,0.266-0.438,0.527-0.57,0.784c-0.133,0.256-0.233,0.494-0.3,0.712
			c-0.066,0.219-0.104,0.414-0.113,0.584c-0.011,0.171-0.015,0.285-0.015,0.342c0,0.266,0.072,0.522,0.214,0.77
			c0.144,0.247,0.214,0.475,0.214,0.684c0,0.247-0.114,0.508-0.342,0.784c-0.228,0.275-0.447,0.413-0.655,0.413
			c-0.229,0-0.414-0.076-0.556-0.229c-0.143-0.151-0.214-0.427-0.214-0.826c0-0.798,0.144-1.591,0.428-2.379
			c0.284-0.789,0.826-1.524,1.624-2.208c0.304-0.266,0.659-0.503,1.068-0.712c0.408-0.209,0.827-0.39,1.255-0.542
			c0.426-0.152,0.84-0.271,1.238-0.356c0.399-0.085,0.741-0.128,1.026-0.128c1.5,0,2.726,0.124,3.675,0.37
			c0.951,0.247,1.796,0.57,2.536,0.969c0.134-0.209,0.324-0.508,0.57-0.898c0.248-0.389,0.503-0.774,0.77-1.154
			c0.266-0.38,0.532-0.713,0.798-0.998s0.485-0.427,0.656-0.427c0.095,0,0.194,0.004,0.299,0.014c0.104,0.01,0.156,0.09,0.156,0.242
			c0,0.19-0.096,0.432-0.284,0.727c-0.19,0.295-0.419,0.641-0.685,1.04c-0.114,0.19-0.242,0.39-0.385,0.599
			c-0.143,0.209-0.28,0.404-0.412,0.583c-0.134,0.181-0.248,0.342-0.342,0.485c-0.097,0.143-0.152,0.242-0.172,0.299
			c0.873,0.571,1.724,1.216,2.55,1.938c0.827,0.722,1.554,1.529,2.181,2.422c0.626,0.893,1.13,1.871,1.51,2.935
			S87.712,17.524,87.712,18.778z M85.604,19.519c0-1.007-0.143-1.981-0.428-2.921c-0.286-0.94-0.68-1.824-1.183-2.65
			c-0.504-0.826-1.106-1.591-1.81-2.294c-0.703-0.703-1.472-1.33-2.308-1.881c-0.305,0.494-0.661,1.14-1.069,1.938
			c-0.408,0.797-0.836,1.667-1.282,2.607c-0.447,0.94-0.898,1.924-1.354,2.949c-0.456,1.026-0.883,2.009-1.281,2.95
			c-0.399,0.94-0.761,1.81-1.084,2.607c-0.323,0.797-0.561,1.443-0.712,1.937c0.189,0.019,0.417,0.039,0.684,0.058
			c0.228,0.019,0.522,0.028,0.884,0.028c0.36,0,0.808,0,1.339,0c0.399,0,0.926,0.01,1.581,0.029c0.656,0.02,1.345,0.014,2.066-0.014
			c0.722-0.029,1.43-0.109,2.123-0.242c0.693-0.132,1.277-0.352,1.753-0.655c0.398-0.247,0.731-0.56,0.997-0.941
			c0.266-0.379,0.479-0.773,0.641-1.182c0.162-0.408,0.275-0.817,0.342-1.226C85.57,20.208,85.604,19.842,85.604,19.519z"/>
		<path d="M97.015,25.247c-1.149,0.551-2.436,0.827-3.861,0.827c-0.398,0-0.712-0.038-0.939-0.114
			c-0.894,0.475-1.834,0.712-2.821,0.712c-0.343,0-0.675-0.053-0.997-0.157c-0.323-0.104-0.613-0.28-0.869-0.527
			c-0.257-0.247-0.461-0.57-0.612-0.969c-0.152-0.399-0.229-0.883-0.229-1.453c0-0.532,0.047-1.026,0.143-1.482
			c0.095-0.456,0.228-0.969,0.398-1.539c0.133-0.456,0.29-0.907,0.471-1.354c0.181-0.446,0.365-0.864,0.556-1.253
			c0.189-0.389,0.385-0.741,0.584-1.055c0.2-0.313,0.385-0.555,0.556-0.726c0.132-0.133,0.304-0.252,0.513-0.356
			c0.209-0.104,0.446-0.157,0.713-0.157c0.189,0,0.328,0.029,0.412,0.085c0.086,0.057,0.157,0.114,0.214,0.171h0.086
			c0.305-0.285,0.617-0.565,0.94-0.84c0.322-0.275,0.67-0.522,1.041-0.741c0.37-0.218,0.773-0.399,1.21-0.541
			c0.437-0.143,0.94-0.214,1.51-0.214c0.723,0,1.326,0.233,1.811,0.698c0.483,0.466,0.727,1.259,0.727,2.38
			c0,0.684-0.134,1.434-0.399,2.251c-0.266,0.817-0.637,1.619-1.111,2.408s-1.026,1.525-1.652,2.208
			c-0.627,0.684-1.311,1.245-2.052,1.681c0.019,0.019,0.114,0.042,0.285,0.071s0.408,0.043,0.712,0.043
			c0.816,0,1.743-0.223,2.779-0.669c1.034-0.446,2.094-1.069,3.177-1.867l0.257,0.341C99.347,23.983,98.165,24.696,97.015,25.247z
			 M89.75,24.363c-0.219-0.436-0.366-0.887-0.442-1.353c-0.075-0.465-0.099-0.917-0.071-1.354c0.029-0.437,0.063-0.807,0.1-1.111
			H89.25c-0.056,0.171-0.127,0.409-0.212,0.712c-0.086,0.304-0.147,0.779-0.186,1.425c-0.039,0.588,0.004,1.064,0.128,1.424
			c0.124,0.361,0.28,0.641,0.471,0.841c0.189,0.199,0.384,0.333,0.584,0.398c0.199,0.067,0.346,0.1,0.441,0.1h0.285
			C90.305,25.161,89.967,24.8,89.75,24.363z M96.289,17.581c0-0.684-0.142-1.249-0.428-1.695c-0.284-0.446-0.788-0.67-1.51-0.67
			c-0.209,0-0.518,0.057-0.926,0.171c-0.409,0.114-0.774,0.304-1.098,0.57c-0.189,0.152-0.398,0.38-0.626,0.684
			c-0.229,0.304-0.446,0.674-0.656,1.111c-0.209,0.438-0.394,0.945-0.556,1.524c-0.161,0.58-0.27,1.221-0.327,1.924
			c0,0.171,0.004,0.441,0.015,0.812c0.009,0.371,0.079,0.76,0.214,1.168c0.132,0.409,0.351,0.789,0.654,1.14
			c0.304,0.352,0.751,0.575,1.34,0.67c0.607-0.304,1.153-0.746,1.639-1.325c0.484-0.58,0.892-1.216,1.225-1.91
			c0.332-0.693,0.589-1.41,0.77-2.151C96.199,18.863,96.289,18.189,96.289,17.581z"/>
		<path d="M102.786,23.28c0,0.513,0.081,0.945,0.242,1.296c0.161,0.352,0.432,0.527,0.812,0.527c0.514,0,1.002-0.185,1.469-0.555
			c0.465-0.371,0.945-0.983,1.439-1.838c0.474-0.854,0.84-1.842,1.097-2.963c0.256-1.121,0.385-2.194,0.385-3.22
			c0-0.646-0.12-1.32-0.356-2.023c-0.238-0.703-0.532-1.382-0.884-2.038c-0.353-0.655-0.723-1.268-1.111-1.838
			c-0.39-0.57-0.736-1.055-1.039-1.454c-0.21-0.285-0.354-0.541-0.428-0.769c-0.077-0.229-0.097-0.494-0.058-0.798
			c0.038-0.38,0.218-0.817,0.541-1.311c0.323-0.494,0.836-1.054,1.539-1.681c0.455-0.418,0.874-0.789,1.254-1.112
			c0.38-0.323,0.783-0.626,1.211-0.912c0.428-0.285,0.912-0.565,1.453-0.84c0.542-0.276,1.211-0.585,2.009-0.927
			c0.703-0.323,1.411-0.541,2.123-0.655C115.195,0.057,115.76,0,116.179,0c0.38,0,0.664,0.019,0.854,0.057
			c0.188,0.038,0.266,0.209,0.228,0.513c0,0.076-0.024,0.18-0.071,0.313c-0.047,0.133-0.104,0.261-0.171,0.385
			c-0.067,0.123-0.143,0.228-0.229,0.313c-0.085,0.085-0.176,0.128-0.27,0.128c-0.21,0-0.523-0.029-0.94-0.085
			c-0.418-0.058-0.846-0.085-1.283-0.085c-0.19,0-0.417-0.005-0.684-0.014s-0.58,0.019-0.939,0.085
			c-0.361,0.067-0.78,0.19-1.255,0.371s-1.016,0.461-1.625,0.84c-1.272,0.798-2.155,1.492-2.649,2.081s-0.74,1.159-0.74,1.709
			c0,0.247,0.028,0.456,0.086,0.627c0.056,0.171,0.142,0.361,0.257,0.57c0.284,0.513,0.62,1.064,1.011,1.652
			c0.39,0.589,0.759,1.239,1.111,1.952c0.352,0.712,0.65,1.492,0.897,2.336c0.247,0.845,0.371,1.771,0.371,2.778
			c0,0.855-0.196,1.853-0.585,2.992c-0.39,1.14-0.983,2.279-1.781,3.419c-0.873,1.253-1.715,2.19-2.521,2.807
			c-0.808,0.618-1.629,0.926-2.465,0.926c-0.684,0-1.249-0.214-1.695-0.641c-0.447-0.427-0.67-1.192-0.67-2.294
			c0-0.57,0.095-1.197,0.285-1.88c0.189-0.684,0.412-1.349,0.669-1.995c0.257-0.646,0.513-1.23,0.77-1.752
			c0.257-0.522,0.461-0.898,0.613-1.126c0.665-1.083,1.281-1.947,1.853-2.593c0.57-0.646,1.015-0.969,1.338-0.969
			c0.21,0,0.343,0.062,0.399,0.185c0.058,0.124,0.086,0.356,0.086,0.698c0,0.38-0.109,0.836-0.328,1.368
			c-0.219,0.532-0.489,1.082-0.812,1.653c-0.323,0.57-0.67,1.13-1.041,1.681c-0.37,0.552-0.708,1.026-1.011,1.425
			c-0.096,0.285-0.195,0.665-0.3,1.14S102.786,22.615,102.786,23.28z M105.236,14.988c-0.152,0-0.327,0.195-0.526,0.584
			c-0.2,0.39-0.396,0.832-0.585,1.325c-0.189,0.495-0.352,0.974-0.484,1.439c-0.133,0.466-0.209,0.774-0.228,0.926
			c0.151-0.152,0.313-0.366,0.484-0.642c0.171-0.275,0.343-0.564,0.514-0.869c0.171-0.303,0.322-0.613,0.455-0.926
			c0.133-0.313,0.237-0.594,0.314-0.841c0.074-0.266,0.151-0.499,0.227-0.698C105.484,15.088,105.426,14.988,105.236,14.988z"/>
		<path d="M123.188,15.872c0,0.893-0.189,1.81-0.57,2.75c-0.38,0.94-0.85,1.838-1.41,2.693c-0.561,0.855-1.164,1.629-1.809,2.323
			c-0.646,0.693-1.245,1.23-1.796,1.61c-0.494,0.342-1.04,0.66-1.639,0.955s-1.192,0.442-1.781,0.442
			c-0.38,0-0.641-0.076-0.783-0.229s-0.213-0.323-0.213-0.512c0-0.399,0.109-0.827,0.327-1.283c0.218-0.456,0.498-0.902,0.841-1.339
			c0.342-0.437,0.727-0.869,1.154-1.296c0.427-0.427,0.858-0.812,1.296-1.154c0.778-0.608,1.496-1.116,2.151-1.524
			c0.655-0.408,1.248-0.755,1.78-1.04c0.096-0.304,0.144-0.57,0.144-0.798s0-0.475,0-0.741c0-0.437-0.048-0.792-0.144-1.068
			c-0.095-0.275-0.223-0.494-0.385-0.655c-0.16-0.161-0.342-0.271-0.54-0.328c-0.2-0.058-0.413-0.085-0.643-0.085
			c-0.436,0-0.982,0.209-1.638,0.627s-1.41,1.083-2.266,1.995c-0.189,0.438-0.403,0.974-0.642,1.61
			c-0.237,0.637-0.494,1.339-0.769,2.108c-0.275,0.77-0.57,1.601-0.883,2.494c-0.314,0.893-0.633,1.805-0.955,2.736
			c-0.305,0.854-0.604,1.704-0.898,2.55c-0.293,0.845-0.568,1.652-0.825,2.422s-0.489,1.482-0.698,2.137
			c-0.21,0.655-0.38,1.22-0.514,1.695c-0.019,0.095-0.032,0.237-0.043,0.428c-0.009,0.189-0.032,0.379-0.071,0.57
			c-0.038,0.171-0.117,0.37-0.241,0.599c-0.124,0.228-0.347,0.474-0.67,0.741c-0.418,0.323-0.846,0.484-1.282,0.484
			c-0.152,0-0.284-0.058-0.399-0.171c-0.113-0.114-0.171-0.305-0.171-0.57c0-0.171,0.038-0.442,0.115-0.812
			c0.075-0.37,0.246-0.889,0.512-1.553c0.495-1.368,0.997-2.726,1.511-4.074c0.437-1.159,0.907-2.408,1.411-3.748
			c0.503-1.339,0.973-2.588,1.409-3.748c0.247-0.664,0.471-1.272,0.67-1.823c0.2-0.551,0.39-1.087,0.57-1.61
			c0.18-0.522,0.37-1.055,0.57-1.596c0.199-0.542,0.413-1.145,0.641-1.81c0.209-0.551,0.407-1.116,0.598-1.696
			c0.19-0.579,0.361-0.945,0.514-1.097c0.284-0.285,0.603-0.508,0.955-0.669c0.351-0.162,0.573-0.243,0.669-0.243
			c0.075,0,0.138,0.005,0.185,0.015c0.049,0.009,0.072,0.062,0.072,0.156c0,0.057-0.029,0.185-0.086,0.385
			c-0.057,0.199-0.128,0.446-0.213,0.741c-0.086,0.294-0.19,0.612-0.314,0.955c-0.124,0.342-0.242,0.665-0.355,0.968l0.142,0.029
			c0.343-0.342,0.737-0.679,1.183-1.011c0.446-0.332,0.902-0.631,1.368-0.898c0.466-0.266,0.917-0.479,1.354-0.641
			c0.438-0.161,0.827-0.242,1.169-0.242c0.798,0,1.386,0.209,1.766,0.627C122.999,14.067,123.188,14.808,123.188,15.872z
			 M120.539,19.234c-0.152,0.057-0.366,0.157-0.642,0.299c-0.276,0.143-0.575,0.313-0.898,0.513
			c-0.322,0.199-0.659,0.427-1.011,0.684c-0.352,0.256-0.67,0.527-0.954,0.812c-0.248,0.247-0.494,0.503-0.741,0.77
			c-0.247,0.267-0.467,0.542-0.655,0.826c-0.19,0.285-0.347,0.57-0.47,0.855c-0.124,0.284-0.186,0.58-0.186,0.883
			c0,0.342,0.266,0.513,0.797,0.513c0.267,0,0.561-0.072,0.884-0.214s0.655-0.385,0.998-0.727c0.209-0.208,0.451-0.484,0.727-0.826
			c0.275-0.342,0.55-0.736,0.825-1.183c0.276-0.445,0.532-0.94,0.771-1.481C120.219,20.417,120.406,19.842,120.539,19.234z"/>
		<path d="M135.47,23.28c0,0.077-0.248,0.295-0.741,0.655c-0.494,0.361-1.136,0.746-1.924,1.154
			c-0.788,0.409-1.667,0.774-2.636,1.097s-1.928,0.484-2.879,0.484c-1.195,0-2.094-0.285-2.692-0.855s-0.897-1.472-0.897-2.708
			c0-0.797,0.224-1.775,0.67-2.935c0.446-1.158,1.164-2.327,2.152-3.505c0.568-0.684,1.152-1.272,1.751-1.766
			c0.599-0.494,1.174-0.893,1.725-1.197c0.55-0.303,1.068-0.527,1.553-0.669c0.485-0.143,0.898-0.213,1.24-0.213
			c0.55,0,0.93,0.071,1.14,0.213c0.209,0.143,0.313,0.395,0.313,0.755c0,0.457-0.317,1.05-0.954,1.781
			c-0.637,0.731-1.458,1.572-2.465,2.521c-0.398,0.381-0.859,0.809-1.382,1.283c-0.523,0.475-1.012,0.931-1.468,1.368
			c-0.551,0.494-1.102,0.998-1.653,1.51c-0.075,1.197,0.124,2.019,0.599,2.465s1.15,0.669,2.024,0.669c0.74,0,1.49-0.138,2.25-0.413
			c0.761-0.275,1.444-0.575,2.053-0.897c0.722-0.38,1.414-0.827,2.079-1.34c0.076,0.114,0.124,0.2,0.144,0.257
			C135.488,23.052,135.488,23.148,135.47,23.28z M131.823,15.074c0-0.303-0.086-0.494-0.257-0.57
			c-0.171-0.076-0.361-0.114-0.57-0.114c-0.361,0-0.813,0.143-1.354,0.428s-1.05,0.731-1.524,1.339
			c-0.21,0.266-0.418,0.589-0.627,0.969s-0.403,0.797-0.584,1.254c-0.181,0.456-0.333,0.936-0.456,1.438
			c-0.123,0.504-0.195,1.002-0.214,1.496c0.38-0.323,0.77-0.655,1.169-0.997c0.342-0.304,0.712-0.636,1.111-0.998
			c0.398-0.36,0.778-0.731,1.14-1.111c0.627-0.646,1.144-1.226,1.553-1.739C131.618,15.957,131.823,15.492,131.823,15.074z"/>
		<path fill="#EF4423" d="M85.618,57.19c-0.274,0.189-0.574,0.384-0.898,0.584c-0.323,0.199-0.646,0.395-0.968,0.584
			c-0.323,0.19-0.617,0.371-0.884,0.542c-1.063,0.646-1.946,1.088-2.649,1.325s-1.197,0.355-1.481,0.355
			c-0.229,0-0.366-0.091-0.413-0.271c-0.049-0.181-0.072-0.356-0.072-0.527c0-0.19,0.066-0.56,0.199-1.111
			c0.134-0.55,0.286-1.13,0.457-1.738c0.208-0.702,0.437-1.472,0.684-2.308l-0.085-0.029c-0.325,0.38-0.623,0.703-0.898,0.97
			c-0.275,0.266-0.584,0.546-0.926,0.841s-0.746,0.636-1.212,1.025c-0.465,0.39-1.05,0.879-1.751,1.468
			c-0.153,0.133-0.343,0.275-0.571,0.427c-0.228,0.152-0.46,0.289-0.697,0.413c-0.238,0.124-0.466,0.229-0.685,0.313
			c-0.219,0.086-0.384,0.129-0.499,0.129c-0.209,0-0.342-0.048-0.398-0.143s-0.085-0.238-0.085-0.428
			c0-0.342,0.113-0.893,0.342-1.652c0.228-0.76,0.55-1.853,0.969-3.278l0.399-1.367l-0.115-0.058
			c-0.075,0.096-0.209,0.271-0.397,0.528c-0.19,0.256-0.419,0.551-0.685,0.883c-0.267,0.333-0.547,0.681-0.84,1.04
			c-0.296,0.361-0.575,0.703-0.842,1.026c-0.607,0.722-1.149,1.296-1.624,1.724s-0.902,0.756-1.282,0.983
			c-0.381,0.229-0.717,0.381-1.012,0.455c-0.295,0.077-0.565,0.115-0.813,0.115c-0.437,0-0.731-0.147-0.883-0.442
			c-0.152-0.295-0.229-0.642-0.229-1.04c0-0.114,0.02-0.266,0.058-0.456c0.039-0.189,0.086-0.389,0.143-0.598
			s0.128-0.403,0.214-0.585c0.086-0.18,0.185-0.328,0.299-0.441c0.152-0.151,0.317-0.294,0.499-0.428
			c0.18-0.132,0.374-0.218,0.584-0.256c0,0.113,0,0.289,0,0.526c0,0.238,0.019,0.476,0.058,0.714
			c0.037,0.237,0.104,0.44,0.199,0.611c0.094,0.172,0.236,0.257,0.427,0.257c0.133,0,0.285-0.009,0.456-0.028
			c0.171-0.019,0.375-0.09,0.613-0.214c0.237-0.123,0.521-0.327,0.854-0.613c0.333-0.284,0.737-0.701,1.212-1.253
			c0.398-0.456,0.778-0.906,1.14-1.354c0.361-0.446,0.698-0.879,1.012-1.296c0.313-0.418,0.588-0.803,0.826-1.155
			c0.238-0.351,0.423-0.659,0.556-0.926c0.133-0.304,0.232-0.565,0.299-0.784c0.066-0.218,0.129-0.422,0.186-0.613
			c0.058-0.189,0.118-0.375,0.186-0.555c0.066-0.181,0.165-0.394,0.3-0.642c0.266-0.304,0.536-0.508,0.811-0.613
			c0.275-0.104,0.518-0.157,0.728-0.157c0.284,0,0.493,0.005,0.626,0.014c0.134,0.01,0.2,0.119,0.2,0.328
			c0,0.494-0.109,1.059-0.328,1.696c-0.219,0.637-0.498,1.287-0.84,1.952c-0.229,0.684-0.452,1.349-0.67,1.995
			c-0.219,0.646-0.404,1.221-0.556,1.724c-0.152,0.503-0.276,0.917-0.37,1.239c-0.095,0.323-0.143,0.514-0.143,0.57
			c0,0.095-0.006,0.186-0.015,0.271c-0.01,0.086,0.063,0.128,0.214,0.128c0.075,0,0.3-0.1,0.67-0.299s0.816-0.494,1.339-0.883
			c0.521-0.39,1.083-0.87,1.682-1.439c0.598-0.57,1.183-1.226,1.752-1.966c0.152-0.399,0.314-0.85,0.485-1.354
			c0.171-0.503,0.346-1.006,0.526-1.51c0.181-0.503,0.371-0.969,0.57-1.397c0.199-0.427,0.412-0.755,0.641-0.982
			c0.229-0.228,0.479-0.375,0.756-0.442c0.275-0.066,0.603-0.1,0.982-0.1c0.209,0,0.323,0.072,0.342,0.214
			c0.019,0.143,0.029,0.309,0.029,0.499c0,0.285-0.066,0.617-0.199,0.998c-0.135,0.38-0.295,0.765-0.485,1.154
			s-0.39,0.76-0.599,1.111s-0.39,0.641-0.541,0.869c-0.152,0.361-0.323,0.86-0.514,1.496c-0.189,0.637-0.38,1.273-0.568,1.91
			c-0.19,0.637-0.348,1.21-0.471,1.724c-0.124,0.513-0.186,0.826-0.186,0.94c0,0.189,0.005,0.36,0.015,0.513
			c0.009,0.152,0.175,0.228,0.498,0.228c0.209,0,0.494-0.075,0.855-0.228s0.76-0.351,1.196-0.599
			c0.438-0.246,0.893-0.518,1.368-0.813c0.474-0.294,0.931-0.584,1.368-0.868l0.256,0.342C86.126,56.839,85.893,57,85.618,57.19z"/>
		<path d="M95.406,56.292c-0.38,0.276-0.765,0.556-1.154,0.842c-0.39,0.284-0.779,0.561-1.168,0.826
			c-0.39,0.266-0.755,0.504-1.097,0.712c-0.779,0.475-1.454,0.854-2.023,1.14c-0.57,0.286-1.06,0.504-1.468,0.655
			c-0.409,0.152-0.74,0.252-0.997,0.3c-0.257,0.047-0.451,0.07-0.584,0.07c-0.267,0-0.475-0.047-0.628-0.142
			c-0.152-0.096-0.266-0.209-0.341-0.342c-0.077-0.134-0.124-0.28-0.143-0.442c-0.02-0.16-0.028-0.308-0.028-0.441
			c0-0.152,0.023-0.371,0.07-0.655c0.048-0.285,0.114-0.599,0.2-0.94c0.085-0.342,0.181-0.703,0.284-1.083
			c0.104-0.38,0.214-0.73,0.329-1.054c0.436-1.311,0.878-2.612,1.323-3.904c0.447-1.292,0.831-2.412,1.155-3.363
			c0.057-0.171,0.175-0.351,0.356-0.541c0.18-0.19,0.44-0.351,0.783-0.484c0.209-0.076,0.413-0.128,0.612-0.157
			c0.199-0.029,0.366-0.043,0.499-0.043c0.151,0,0.228,0.104,0.228,0.313c0,0.076-0.042,0.238-0.128,0.484
			c-0.085,0.247-0.189,0.542-0.313,0.884c-0.124,0.342-0.257,0.717-0.398,1.125c-0.143,0.409-0.28,0.802-0.414,1.182
			c-0.228,0.685-0.475,1.411-0.74,2.18c-0.267,0.77-0.514,1.492-0.741,2.166c-0.228,0.675-0.418,1.259-0.569,1.753
			c-0.152,0.494-0.229,0.825-0.229,0.996c0,0.306,0.019,0.552,0.058,0.742c0.037,0.189,0.218,0.284,0.541,0.284
			c0.417,0,0.992-0.175,1.724-0.526c0.73-0.352,1.481-0.77,2.251-1.255c0.77-0.483,1.496-0.978,2.181-1.481
			c0.684-0.503,1.196-0.915,1.538-1.239l0.057,0.684C96.127,55.766,95.786,56.018,95.406,56.292z M93.126,43.37
			c0,0.494-0.157,0.917-0.471,1.268c-0.313,0.352-0.793,0.527-1.438,0.527c-0.627,0-0.94-0.399-0.94-1.197
			c0-0.57,0.151-1.03,0.456-1.382c0.304-0.352,0.816-0.537,1.538-0.556c0.323-0.018,0.547,0.067,0.67,0.257
			C93.064,42.477,93.126,42.838,93.126,43.37z"/>
		<path d="M105.863,56.877c0,0.075-0.27,0.313-0.811,0.712c-0.543,0.398-1.235,0.826-2.081,1.282s-1.776,0.865-2.792,1.227
			c-1.018,0.36-2,0.541-2.95,0.541c-0.931,0-1.666-0.257-2.208-0.77c-0.541-0.514-0.813-1.368-0.813-2.564
			c0-0.514,0.081-1.068,0.243-1.667c0.16-0.599,0.394-1.211,0.697-1.839c0.304-0.626,0.68-1.253,1.126-1.88
			c0.445-0.627,0.945-1.226,1.496-1.796c0.493-0.513,1.016-0.964,1.566-1.353s1.088-0.722,1.61-0.998
			c0.523-0.275,1.002-0.479,1.439-0.613c0.438-0.132,0.798-0.2,1.083-0.2c0.322,0,0.617,0.053,0.883,0.157s0.399,0.413,0.399,0.926
			c0,0.267-0.066,0.627-0.2,1.083c-0.133,0.456-0.39,0.845-0.77,1.168c-0.323,0.267-0.621,0.442-0.896,0.527
			c-0.276,0.085-0.48,0.128-0.613,0.128c-0.095,0-0.171-0.057-0.228-0.171l0.285-0.626c0.151-0.342,0.237-0.594,0.257-0.755
			c0.019-0.162,0.027-0.289,0.027-0.384c0-0.209-0.042-0.361-0.128-0.457c-0.085-0.095-0.242-0.142-0.471-0.142
			c-0.607,0-1.221,0.233-1.837,0.698c-0.618,0.466-1.178,1.069-1.683,1.81c-0.503,0.741-0.915,1.572-1.238,2.493
			c-0.324,0.922-0.484,1.838-0.484,2.751c0,0.323,0.019,0.669,0.057,1.039c0.037,0.37,0.129,0.708,0.271,1.012
			c0.143,0.304,0.352,0.556,0.627,0.755c0.274,0.2,0.651,0.3,1.126,0.3c0.55,0,1.111-0.076,1.681-0.228
			c0.57-0.151,1.026-0.305,1.368-0.457c0.532-0.228,1.016-0.464,1.454-0.712c0.436-0.246,0.811-0.471,1.125-0.67
			c0.313-0.198,0.556-0.365,0.727-0.498s0.275-0.2,0.313-0.2c0.076,0,0.157,0.01,0.243,0.029S105.882,56.668,105.863,56.877z"/>
		<path d="M123.731,57.617c-0.362,0.248-0.732,0.494-1.112,0.741s-0.684,0.447-0.912,0.599c-0.969,0.627-1.79,1.102-2.464,1.425
			c-0.676,0.322-1.154,0.484-1.439,0.484c-0.229,0-0.366-0.085-0.414-0.256c-0.047-0.171-0.07-0.353-0.07-0.543
			c0-0.094,0.038-0.289,0.113-0.584c0.076-0.294,0.181-0.649,0.313-1.068c0.133-0.417,0.275-0.873,0.428-1.367
			c0.152-0.493,0.313-0.998,0.484-1.511c0.171-0.53,0.337-1.059,0.499-1.581c0.161-0.522,0.304-1.002,0.427-1.439
			c0.124-0.436,0.229-0.821,0.313-1.154c0.086-0.332,0.139-0.594,0.156-0.784c0-0.094,0.011-0.185,0.029-0.271
			c0.019-0.085-0.029-0.127-0.143-0.127c-0.114,0-0.318,0.104-0.612,0.313c-0.295,0.209-0.547,0.418-0.756,0.626
			c-0.342,0.342-0.774,0.803-1.296,1.382c-0.522,0.58-1.116,1.325-1.781,2.236c-0.19,0.268-0.404,0.59-0.641,0.969
			c-0.238,0.381-0.461,0.751-0.67,1.111c-0.21,0.361-0.39,0.681-0.541,0.955c-0.152,0.275-0.248,0.433-0.286,0.47
			c-0.095,0.096-0.231,0.22-0.413,0.371c-0.18,0.152-0.374,0.304-0.584,0.456c-0.209,0.152-0.417,0.284-0.626,0.398
			c-0.21,0.114-0.399,0.171-0.57,0.171c-0.076,0-0.114-0.037-0.114-0.114c0-0.075,0.009-0.156,0.028-0.242
			c0.019-0.085,0.047-0.204,0.086-0.356c0.038-0.151,0.1-0.351,0.186-0.599c0.085-0.246,0.194-0.56,0.327-0.939l1.796-5.129
			c0.342-0.988,0.531-1.662,0.569-2.023c0-0.152-0.048-0.237-0.143-0.256c-0.323,0-1.103,0.636-2.337,1.909
			c-0.551,0.551-1.064,1.154-1.539,1.81s-0.911,1.308-1.311,1.952c-0.397,0.646-0.755,1.264-1.068,1.853
			c-0.313,0.589-0.564,1.093-0.755,1.51c-0.075,0.096-0.185,0.205-0.327,0.327c-0.144,0.124-0.3,0.243-0.471,0.356
			c-0.171,0.114-0.347,0.21-0.527,0.285c-0.181,0.076-0.356,0.115-0.527,0.115c-0.132,0-0.218-0.044-0.256-0.129
			c-0.038-0.086-0.058-0.186-0.058-0.299c0-0.077,0.02-0.19,0.058-0.343c0.038-0.151,0.09-0.327,0.156-0.527
			c0.066-0.199,0.139-0.408,0.214-0.627c0.076-0.218,0.151-0.423,0.229-0.612c0.189-0.513,0.36-0.979,0.513-1.396
			c0.152-0.418,0.284-0.813,0.398-1.184c0.114-0.37,0.224-0.73,0.328-1.082c0.104-0.352,0.213-0.717,0.328-1.097
			c0.056-0.209,0.128-0.475,0.214-0.799c0.085-0.322,0.18-0.65,0.284-0.982c0.104-0.332,0.204-0.646,0.3-0.94
			c0.094-0.294,0.18-0.527,0.256-0.698c0.113-0.285,0.28-0.537,0.498-0.755c0.219-0.218,0.452-0.408,0.699-0.569
			c0.246-0.161,0.483-0.28,0.712-0.356s0.409-0.114,0.541-0.114c0.133,0,0.199,0.105,0.199,0.313
			c-0.018,0.152-0.09,0.437-0.214,0.854c-0.123,0.418-0.251,0.827-0.384,1.226c-0.17,0.532-0.361,1.102-0.57,1.709
			c-0.209,0.608-0.418,1.178-0.626,1.71c-0.229,0.626-0.466,1.244-0.713,1.852l0.114,0.086c0.189-0.322,0.432-0.688,0.727-1.097
			c0.293-0.409,0.607-0.827,0.94-1.254c0.332-0.428,0.674-0.841,1.025-1.239c0.352-0.399,0.688-0.75,1.012-1.055
			c0.969-0.912,1.813-1.653,2.536-2.223c0.722-0.569,1.301-0.845,1.738-0.826c0.133,0,0.242,0.038,0.328,0.114
			c0.085,0.076,0.128,0.218,0.128,0.428c0,0.209-0.081,0.589-0.243,1.14c-0.161,0.551-0.347,1.139-0.555,1.766
			c-0.209,0.627-0.418,1.24-0.628,1.838c-0.208,0.598-0.37,1.059-0.483,1.382h0.086c1.025-1.216,1.951-2.237,2.777-3.064
			c0.827-0.826,1.554-1.481,2.18-1.966c0.627-0.484,1.155-0.831,1.582-1.04c0.427-0.208,0.756-0.313,0.982-0.313
			c0.133,0,0.224,0.053,0.271,0.156c0.047,0.105,0.07,0.233,0.07,0.385c0,0.171-0.042,0.432-0.128,0.784
			c-0.085,0.352-0.199,0.773-0.342,1.268c-0.142,0.494-0.304,1.036-0.483,1.625c-0.182,0.589-0.366,1.197-0.556,1.823
			c-0.058,0.229-0.163,0.561-0.314,0.998c-0.152,0.437-0.3,0.888-0.441,1.354c-0.143,0.465-0.271,0.897-0.385,1.296
			c-0.114,0.399-0.171,0.656-0.171,0.77c0,0.133,0.009,0.238,0.028,0.313c0.019,0.076,0.096,0.114,0.229,0.114
			c0.208,0,0.489-0.076,0.84-0.229c0.352-0.151,0.731-0.342,1.141-0.569c0.408-0.228,0.845-0.489,1.311-0.784
			c0.466-0.294,0.916-0.584,1.354-0.868l0.256,0.342C124.594,57.029,124.147,57.333,123.731,57.617z M124.271,44.196
			c-0.702,0.304-1.534,0.589-2.492,0.855c-0.96,0.266-2.02,0.484-3.178,0.655c-1.159,0.171-2.403,0.256-3.732,0.256
			c-0.609,0-1.169-0.075-1.682-0.228c-0.513-0.152-0.865-0.275-1.055-0.37c0.342-0.513,0.702-0.921,1.083-1.225
			c0.323,0.152,0.879,0.284,1.667,0.398s1.752,0.171,2.892,0.171c1.216,0,2.271-0.061,3.164-0.185
			c0.892-0.124,1.662-0.271,2.308-0.442s1.173-0.337,1.582-0.499c0.408-0.161,0.727-0.28,0.954-0.356l0.171,0.113
			C125.535,43.607,124.974,43.893,124.271,44.196z"/>
		<path d="M134.744,59.214c-1.15,0.551-2.437,0.826-3.861,0.826c-0.399,0-0.712-0.038-0.94-0.114
			c-0.894,0.475-1.833,0.713-2.82,0.713c-0.343,0-0.676-0.054-0.998-0.157c-0.323-0.104-0.612-0.279-0.869-0.527
			c-0.257-0.246-0.461-0.57-0.613-0.969c-0.151-0.399-0.228-0.883-0.228-1.453c0-0.532,0.048-1.026,0.143-1.482
			c0.096-0.455,0.229-0.969,0.399-1.539c0.132-0.455,0.289-0.906,0.47-1.353c0.18-0.446,0.365-0.865,0.557-1.254
			c0.188-0.389,0.383-0.741,0.583-1.054s0.385-0.556,0.557-0.727c0.132-0.132,0.303-0.251,0.513-0.356
			c0.208-0.104,0.445-0.157,0.712-0.157c0.188,0,0.327,0.028,0.413,0.085c0.085,0.058,0.156,0.114,0.214,0.171h0.086
			c0.303-0.285,0.617-0.564,0.94-0.84c0.322-0.275,0.669-0.522,1.039-0.741c0.37-0.218,0.773-0.398,1.211-0.541
			s0.94-0.214,1.511-0.214c0.722,0,1.325,0.232,1.81,0.698c0.484,0.465,0.727,1.258,0.727,2.379c0,0.684-0.133,1.435-0.399,2.251
			c-0.266,0.817-0.637,1.62-1.11,2.408c-0.477,0.788-1.026,1.524-1.653,2.209c-0.626,0.683-1.311,1.244-2.052,1.681
			c0.019,0.02,0.113,0.043,0.285,0.071c0.171,0.029,0.408,0.043,0.713,0.043c0.816,0,1.742-0.223,2.777-0.67
			c1.035-0.446,2.094-1.068,3.178-1.866l0.257,0.342C137.075,57.95,135.892,58.663,134.744,59.214z M127.477,58.329
			c-0.219-0.437-0.366-0.887-0.441-1.354c-0.076-0.464-0.1-0.915-0.072-1.354c0.029-0.436,0.062-0.807,0.101-1.111h-0.086
			c-0.057,0.171-0.128,0.41-0.213,0.714c-0.086,0.304-0.148,0.778-0.187,1.424c-0.037,0.59,0.006,1.064,0.129,1.425
			c0.123,0.361,0.279,0.641,0.47,0.842c0.19,0.198,0.385,0.332,0.584,0.398c0.2,0.066,0.348,0.1,0.442,0.1h0.284
			C128.033,59.128,127.695,58.768,127.477,58.329z M134.017,51.548c0-0.684-0.143-1.249-0.428-1.695
			c-0.285-0.446-0.789-0.669-1.51-0.669c-0.21,0-0.519,0.057-0.927,0.17c-0.409,0.114-0.774,0.305-1.098,0.57
			c-0.188,0.152-0.398,0.38-0.626,0.684c-0.229,0.305-0.447,0.675-0.655,1.111c-0.21,0.438-0.396,0.945-0.556,1.525
			c-0.162,0.58-0.271,1.22-0.328,1.923c0,0.171,0.005,0.441,0.014,0.813c0.011,0.37,0.081,0.76,0.215,1.167
			c0.132,0.409,0.351,0.79,0.655,1.141c0.304,0.352,0.749,0.574,1.339,0.67c0.607-0.305,1.154-0.745,1.639-1.325
			c0.484-0.579,0.893-1.216,1.225-1.909c0.333-0.692,0.59-1.41,0.77-2.151C133.926,52.83,134.017,52.156,134.017,51.548z"/>
	</g>
</g>
</svg>
